# xmcd
#
# Track frame offsets: 
#        150
#        15255
#        27765
#        43615
#        59847
#        79375
#        95445
#        110327
#        123512
#        150285
#
# Disc length: 2300 seconds
#
# Revision: 15
# Processed by: cddbd v1.5.2PL0 Copyright (c) Steve Scherf et al.
# Submitted via: ExactAudioCopyFreeDBPlugin 1.0
#
DISCID=7308fa0a
DTITLE=The Darkness - Permission To Land
DYEAR=2003
DGENRE=Rock
TTITLE0=Black Shuck
TTITLE1=Get Your Hands Off My Woman
TTITLE2=Growing On Me
TTITLE3=I Believe In A Thing Called Love
TTITLE4=Love Is Only A Feeling
TTITLE5=Givin' Up
TTITLE6=Stuck In A Rut
TTITLE7=Friday Night
TTITLE8=Love On The Rocks With No Ice
TTITLE9=Holding My Own
EXTD=YEAR: 2003
EXTT0=
EXTT1=
EXTT2=
EXTT3=
EXTT4=
EXTT5=
EXTT6=
EXTT7=
EXTT8=
EXTT9=
PLAYORDER=
